<svg xmlns="http://www.w3.org/2000/svg" viewBox="0 0 552.35 623.05" fill="none" stroke="currentColor" stroke-width="23" stroke-linecap="round" stroke-linejoin="round">
    <path d="M429.14,256.66l59.95-82.91l-14.6,72.55l-1.46,90.41c0,10.23-5.75,19.64-15.87,26.49l-28,23.67V423.13 c0,83.29-68.15,151.43-151.44,151.43S126.29,506.43,126.29,423.13h92.28c0,10.15,4.72,19.8,12.82,26.61 c3.83,4.94,18.8,22.87,43.66,26.5c35.79,5.24,61-23.73,63.34-26.5c27.46-32.62,13.86-74.39,12.84-77.35 c-10-29.09-66.16-58.1-73.51-62.86c-11.47-7.74-69-43.16-76.18-64c-1-3-14.62-44.73,12.84-77.35c2.34-2.77,27.55-31.74,63.34-26.5 c24.86,3.63,39.83,21.56,43.66,26.5c8.1,10.45,12.51,23.37,12.5,36.64l0.34,1.54h93.78c0-83.29-68.15-151.44-151.44-151.44 S126.29,116.62,126.29,199.91v59.72l-3.09-4.27l-60-82.91l14.6,72.55l1.46,90.41c0,10.23,5.75,19.64,15.87,26.49l31.93,27"/>
</svg>